<svg id="visual" viewBox="0 0 5012 600" width="5012" height="600" xmlns="http://www.w3.org/2000/svg" xmlns:xlink="http://www.w3.org/1999/xlink" version="1.1"><path d="M0 196L716 182L1432 226L2148 244L2864 200L3580 174L4296 167L5012 224L5012 601L4296 601L3580 601L2864 601L2148 601L1432 601L716 601L0 601Z" fill="#1768ac"></path><path d="M0 277L716 262L1432 240L2148 225L2864 210L3580 223L4296 257L5012 283L5012 601L4296 601L3580 601L2864 601L2148 601L1432 601L716 601L0 601Z" fill="#115fa4"></path><path d="M0 336L716 306L1432 301L2148 264L2864 267L3580 331L4296 323L5012 293L5012 601L4296 601L3580 601L2864 601L2148 601L1432 601L716 601L0 601Z" fill="#0c579d"></path><path d="M0 296L716 333L1432 317L2148 366L2864 364L3580 303L4296 355L5012 296L5012 601L4296 601L3580 601L2864 601L2148 601L1432 601L716 601L0 601Z" fill="#084e95"></path><path d="M0 359L716 373L1432 364L2148 395L2864 414L3580 391L4296 372L5012 389L5012 601L4296 601L3580 601L2864 601L2148 601L1432 601L716 601L0 601Z" fill="#05468d"></path><path d="M0 401L716 449L1432 399L2148 428L2864 408L3580 430L4296 404L5012 420L5012 601L4296 601L3580 601L2864 601L2148 601L1432 601L716 601L0 601Z" fill="#033e85"></path><path d="M0 476L716 499L1432 491L2148 470L2864 477L3580 471L4296 484L5012 487L5012 601L4296 601L3580 601L2864 601L2148 601L1432 601L716 601L0 601Z" fill="#03357d"></path><path d="M0 502L716 502L1432 520L2148 491L2864 536L3580 512L4296 478L5012 488L5012 601L4296 601L3580 601L2864 601L2148 601L1432 601L716 601L0 601Z" fill="#032d74"></path><path d="M0 544L716 549L1432 550L2148 576L2864 530L3580 580L4296 555L5012 546L5012 601L4296 601L3580 601L2864 601L2148 601L1432 601L716 601L0 601Z" fill="#03256c"></path></svg>