<?xml version="1.0" encoding="UTF-8" standalone="no"?>
<svg
   id="visual"
   viewBox="0 0 5012 600"
   width="5012"
   height="600"
   version="1.1"
   sodipodi:docname="layered-peaks-haikei.svg"
   xmlns:inkscape="http://www.inkscape.org/namespaces/inkscape"
   xmlns:sodipodi="http://sodipodi.sourceforge.net/DTD/sodipodi-0.dtd"
   xmlns="http://www.w3.org/2000/svg"
   xmlns:svg="http://www.w3.org/2000/svg">
  <defs
     id="defs92" />
  <sodipodi:namedview
     id="namedview90"
     pagecolor="#505050"
     bordercolor="#eeeeee"
     borderopacity="1"
     inkscape:showpageshadow="0"
     inkscape:pageopacity="0"
     inkscape:pagecheckerboard="0"
     inkscape:deskcolor="#505050"
     showgrid="false" />
  <path
     d="m -97.843897,403.36336 743.837477,14 743.83762,-44 743.8375,-18 743.8375,44 743.8374,26 743.8375,7 743.8375,-57 V -1.636633 H 4365.1811 3621.3436 2877.5062 2133.6687 1389.8312 645.99358 -97.843897 Z"
     fill="#1768ac"
     id="path71"
     style="stroke-width:1.01926" />
  <path
     d="m -97.843897,322.36336 743.837477,15 743.83762,22 743.8375,15 743.8375,15 743.8374,-13 743.8375,-34 743.8375,-26 V -1.636633 H 4365.1811 3621.3436 2877.5062 2133.6687 1389.8312 645.99358 -97.843897 Z"
     fill="#115fa4"
     id="path73"
     style="stroke-width:1.01926" />
  <path
     d="m -97.843897,263.36336 743.837477,30 743.83762,5 743.8375,37 743.8375,-3 743.8374,-64 743.8375,8 743.8375,30 V -1.636633 H 4365.1811 3621.3436 2877.5062 2133.6687 1389.8312 645.99358 -97.843897 Z"
     fill="#0c579d"
     id="path75"
     style="stroke-width:1.01926" />
  <path
     d="m -97.843897,303.36336 743.837477,-37 743.83762,16 743.8375,-49 743.8375,2 743.8374,61 743.8375,-52 743.8375,59 V -1.636633 H 4365.1811 3621.3436 2877.5062 2133.6687 1389.8312 645.99358 -97.843897 Z"
     fill="#084e95"
     id="path77"
     style="stroke-width:1.01926" />
  <path
     d="m -97.843897,240.36336 743.837477,-14 743.83762,9 743.8375,-31 743.8375,-19 743.8374,23 743.8375,19 743.8375,-17 V -1.636633 H 4365.1811 3621.3436 2877.5062 2133.6687 1389.8312 645.99358 -97.843897 Z"
     fill="#05468d"
     id="path79"
     style="stroke-width:1.01926" />
  <path
     d="m -97.843897,198.36336 743.837477,-48 743.83762,50 743.8375,-29 743.8375,20 743.8374,-22 743.8375,26 743.8375,-16 V -1.636633 H 4365.1811 3621.3436 2877.5062 2133.6687 1389.8312 645.99358 -97.843897 Z"
     fill="#033e85"
     id="path81"
     style="stroke-width:1.01926" />
  <path
     d="m -97.843897,123.36336 743.837477,-23 743.83762,8 743.8375,21 743.8375,-7 743.8374,6 743.8375,-13 743.8375,-3 V -1.636633 H 4365.1811 3621.3436 2877.5062 2133.6687 1389.8312 645.99358 -97.843897 Z"
     fill="#03357d"
     id="path83"
     style="stroke-width:1.01926" />
  <path
     d="M -97.843897,97.363361 H 645.99358 l 743.83762,-17.999994 743.8375,28.999993 743.8375,-44.999993 743.8374,24.000004 743.8375,33.999989 743.8375,-10 V -1.636633 H 4365.1811 3621.3436 2877.5062 2133.6687 1389.8312 645.99358 -97.843897 Z"
     fill="#032d74"
     id="path85"
     style="stroke-width:1.01926" />
  <path
     d="m -97.843897,55.363367 743.837477,-5 743.83762,-1 743.8375,-26 743.8375,46 743.8374,-50 743.8375,25 743.8375,9 v -55 H 4365.1811 3621.3436 2877.5062 2133.6687 1389.8312 645.99358 -97.843897 Z"
     fill="#03256c"
     id="path87"
     style="stroke-width:1.01926" />
</svg>
